<?xml version="1.0" standalone="no"?>
<!DOCTYPE svg PUBLIC "-//W3C//DTD SVG 20010904//EN"
 "http://www.w3.org/TR/2001/REC-SVG-20010904/DTD/svg10.dtd">
<svg version="1.0" xmlns="http://www.w3.org/2000/svg"
 width="880.000000pt" height="880.000000pt" viewBox="0 0 880.000000 880.000000"
 preserveAspectRatio="xMidYMid meet">
<metadata>
Created by potrace 1.14, written by Peter Selinger 2001-2017
</metadata>
<g transform="translate(0.000000,880.000000) scale(0.100000,-0.100000)"
fill="#000000" stroke="none">
<path d="M3374 7265 c-168 -43 -365 -143 -563 -284 l-110 -79 -99 5 c-252 14
-526 -66 -599 -176 -43 -63 -24 -107 63 -147 41 -19 63 -23 94 -18 35 6 40 4
40 -13 0 -27 37 -72 69 -85 l26 -10 -40 -19 c-43 -20 -120 -25 -145 -9 -12 7
-12 12 4 29 25 28 17 55 -17 59 -16 2 -35 -2 -43 -9 -12 -10 -13 -9 -8 6 9 22
-14 37 -39 24 -26 -15 -20 -71 11 -84 12 -5 22 -15 22 -22 0 -7 11 -20 25 -29
34 -22 148 -15 203 13 33 16 42 17 59 6 73 -49 235 -5 397 108 43 30 100 68
128 86 27 17 58 39 67 47 26 24 44 20 78 -16 44 -47 63 -90 63 -144 0 -44 -1
-46 -17 -31 -36 31 -99 21 -109 -18 -8 -33 12 -65 47 -72 83 -16 -26 -164
-144 -194 -110 -27 -197 39 -197 149 0 54 7 70 41 87 38 20 72 19 101 -5 35
-27 39 -53 17 -97 -22 -43 -15 -58 12 -24 30 37 26 106 -9 141 -70 70 -179 43
-223 -54 -39 -87 -17 -179 53 -221 48 -29 176 -28 240 2 68 31 134 103 153
166 8 28 27 63 41 78 26 27 43 80 44 134 0 54 -19 102 -61 149 -48 54 -44 73
9 50 20 -9 62 -25 92 -35 l55 -19 -3 -56 c-8 -128 71 -218 211 -239 43 -7 50
-12 67 -46 97 -188 403 -239 616 -101 77 50 119 99 162 189 l34 73 42 0 c41 0
41 0 73 -68 78 -168 242 -272 426 -272 170 0 298 65 357 179 17 34 24 39 67
46 132 20 215 123 199 246 -6 43 -4 48 16 54 13 4 51 18 86 32 85 33 101 25
51 -26 -47 -50 -72 -126 -63 -191 8 -52 18 -76 49 -110 12 -14 25 -41 29 -61
13 -75 106 -164 196 -189 45 -13 125 -13 172 0 43 12 93 66 103 110 11 51 -13
127 -55 171 -35 37 -41 39 -94 39 -53 0 -61 -3 -92 -34 -27 -27 -34 -42 -34
-73 0 -42 23 -83 46 -83 9 0 14 3 12 8 -2 4 -10 19 -17 34 -43 86 71 159 144
92 25 -23 27 -30 23 -80 -11 -135 -132 -189 -260 -117 -52 29 -97 85 -113 141
-5 18 -3 22 18 22 52 0 80 80 34 101 -25 11 -77 -3 -77 -21 0 -5 -5 -10 -11
-10 -8 0 -10 20 -7 60 5 67 42 132 90 159 25 14 28 13 114 -55 153 -121 247
-176 353 -208 68 -20 111 -20 158 -1 31 13 40 13 80 0 75 -26 154 -30 191 -11
18 9 32 23 32 31 0 8 12 20 28 27 36 17 44 71 12 88 -29 16 -57 -5 -38 -28 10
-12 6 -11 -14 2 -16 10 -35 16 -43 12 -20 -7 -19 -46 3 -62 16 -11 14 -14 -13
-24 -36 -15 -130 1 -154 25 -14 13 -14 15 1 15 26 0 66 38 73 70 6 29 9 30 60
30 30 0 56 4 59 9 3 4 19 11 35 14 36 7 66 56 55 90 -20 68 -123 137 -262 176
-105 29 -261 45 -364 37 l-89 -7 -82 59 c-280 202 -586 331 -784 332 l-63 0 0
-54 0 -54 -152 -5 c-192 -6 -265 -28 -386 -119 -114 -85 -168 -216 -160 -388
l5 -100 -26 0 -27 0 10 71 c21 152 -29 294 -139 397 -114 107 -226 145 -427
145 l-118 0 0 53 0 54 -82 0 c-53 -1 -116 -9 -174 -25z m186 -52 l0 -48 -68
-16 c-139 -34 -313 -124 -482 -249 -52 -38 -71 -47 -93 -43 -15 3 -26 11 -24
17 7 23 196 148 302 201 61 30 146 65 190 77 92 25 92 25 79 37 -12 12 -131
-19 -227 -59 -69 -28 -250 -141 -354 -221 -41 -31 -44 -32 -83 -20 l-41 12 43
33 c135 103 342 218 488 270 61 22 191 50 258 55 8 1 12 -15 12 -46z m1656 36
c181 -32 454 -163 651 -314 l43 -33 -42 -10 c-41 -11 -42 -10 -117 47 -200
152 -375 240 -515 257 -73 9 -49 -8 59 -40 140 -43 322 -142 449 -244 l38 -32
-27 -10 c-14 -5 -28 -10 -30 -10 -2 0 -38 25 -80 55 -149 106 -445 245 -524
245 -19 0 -21 6 -21 50 0 48 1 50 28 50 16 0 55 -5 88 -11z m-1398 -124 c176
-42 327 -171 382 -326 28 -80 36 -139 20 -139 -25 0 -50 -33 -50 -66 0 -25 8
-38 31 -57 l32 -25 -19 -58 c-47 -149 -188 -246 -359 -247 -114 -1 -199 42
-276 140 l-30 37 70 18 c38 9 84 24 101 33 22 11 35 13 49 5 31 -16 99 -12
141 10 117 60 150 271 58 376 -52 58 -101 79 -193 79 -70 0 -87 -4 -134 -30
-120 -66 -193 -206 -195 -372 -1 -35 -5 -63 -9 -63 -17 0 -70 33 -108 67 -46
42 -66 76 -70 118 -4 55 0 65 25 65 49 0 63 62 15 68 -14 2 -31 -4 -39 -12 -7
-9 -19 -16 -26 -16 -18 0 -144 52 -144 59 0 10 160 112 245 157 44 23 128 59
188 80 105 37 107 38 107 69 0 18 3 35 7 38 11 12 116 7 181 -8z m1218 -24 l0
-35 110 -36 c60 -20 141 -53 179 -72 71 -37 255 -154 255 -163 0 -7 -69 -40
-113 -55 -34 -11 -43 -10 -73 6 -31 17 -35 17 -50 2 -23 -22 -11 -46 31 -64
29 -12 35 -19 35 -45 0 -43 -32 -99 -80 -143 -34 -30 -95 -66 -112 -66 -2 0
-3 44 -4 98 0 122 -24 189 -95 266 -69 76 -133 106 -223 106 -83 0 -135 -20
-185 -71 -45 -45 -61 -86 -61 -160 0 -79 15 -129 53 -175 47 -57 135 -82 188
-54 14 8 27 6 49 -5 17 -9 63 -24 102 -33 l70 -18 -50 -55 c-28 -30 -74 -68
-104 -84 -49 -28 -61 -30 -153 -30 -93 0 -105 2 -167 33 -113 55 -186 148
-203 257 -6 33 -3 44 14 59 26 24 27 70 2 88 -17 12 -18 20 -11 58 47 251 272
434 525 427 l70 -2 1 -34z m-1466 -4 c0 -18 -10 -25 -63 -40 -97 -29 -222 -91
-345 -173 l-113 -76 -35 17 c-19 9 -34 18 -34 19 0 2 51 38 113 79 162 108
285 167 402 192 68 14 75 12 75 -18z m1676 -9 c49 -16 129 -50 177 -76 87 -47
257 -162 257 -173 0 -13 -62 -32 -76 -23 -184 129 -313 200 -431 240 -60 20
-83 32 -83 44 0 36 10 36 156 -12z m-2638 -228 c13 0 20 -4 17 -10 -3 -5 -26
-10 -50 -10 -157 0 -323 -87 -355 -186 -16 -50 -17 -51 -67 -59 -40 -6 -43 -5
-43 15 0 20 -4 22 -30 17 -25 -6 -31 -3 -35 16 -13 50 43 128 112 158 98 42
297 74 393 63 19 -2 45 -4 58 -4z m157 -10 c25 -6 20 -8 -28 -9 -37 -1 -56 3
-52 9 7 11 36 11 80 0z m3658 -23 c128 -37 187 -90 187 -168 0 -30 -2 -31 -30
-25 -25 5 -30 2 -30 -14 0 -15 -7 -20 -27 -20 -54 0 -70 10 -82 49 -15 52 -93
123 -163 149 -31 12 -96 26 -145 33 -150 19 -132 30 42 25 131 -3 176 -9 248
-29z m-2602 -5 c93 -45 140 -115 142 -213 2 -87 -54 -149 -135 -149 -45 0 -54
12 -27 36 29 26 59 88 59 120 0 59 -63 83 -112 44 -35 -27 -52 -72 -44 -117
13 -80 15 -77 -39 -95 -27 -10 -70 -17 -95 -15 -43 2 -46 4 -58 42 -23 66 -20
183 6 231 69 134 180 176 303 116z m1207 9 c85 -44 141 -137 142 -232 0 -52
-23 -155 -39 -172 -10 -10 -106 9 -153 29 -37 16 -37 17 -23 45 41 77 -4 178
-79 179 -83 0 -90 -107 -12 -179 30 -29 21 -41 -32 -41 -75 0 -132 60 -132
140 0 106 45 174 145 222 71 33 130 36 183 9z m927 -2 c-16 -4 -41 -7 -54 -8
-38 -2 -12 17 29 21 46 5 63 -5 25 -13z m-130 -9 c-11 -5 -29 -8 -40 -8 -16 0
-15 2 5 8 34 11 60 11 35 0z m-3351 -82 c-133 -92 -224 -137 -224 -109 0 17
46 75 83 104 37 31 143 65 201 66 25 1 18 -7 -60 -61z m512 47 c25 -19 4 -19
-32 0 -24 12 -26 15 -8 15 11 0 29 -7 40 -15z m2725 0 c-42 -19 -52 -19 -27 0
11 8 29 15 40 15 16 -1 12 -5 -13 -15z m491 5 c9 0 23 -6 30 -13 7 -7 29 -19
47 -27 44 -18 98 -65 117 -101 16 -33 17 -39 5 -39 -22 0 -273 159 -287 182
-5 8 4 9 32 5 21 -4 47 -7 56 -7z m-3492 -9 c0 -27 -229 -171 -272 -171 -10 0
-18 -7 -18 -16 0 -40 121 13 254 112 69 51 93 64 112 60 13 -4 24 -10 24 -14
0 -13 -240 -169 -310 -202 -54 -26 -76 -30 -130 -29 -49 2 -71 8 -87 23 -13
10 -23 23 -23 26 0 4 28 21 63 38 34 17 112 65 172 106 101 68 114 74 163 75
28 1 52 -3 52 -8z m3460 -66 c63 -41 143 -87 178 -102 34 -15 62 -30 62 -34 0
-4 -8 -17 -18 -29 -16 -19 -28 -23 -93 -24 -69 -1 -82 2 -160 41 -117 58 -296
183 -278 194 26 16 44 9 124 -51 96 -72 181 -119 223 -122 45 -4 34 14 -18 32
-55 19 -240 145 -240 164 0 3 24 6 53 6 48 0 61 -6 167 -75z m-3278 7 l28 -18
-113 -87 c-173 -135 -345 -211 -428 -190 -50 13 -45 28 14 42 83 18 179 70
327 174 74 53 137 96 140 96 3 1 17 -7 32 -17z m3046 -73 c141 -102 255 -162
340 -180 51 -10 54 -12 37 -25 -17 -13 -70 -19 -138 -17 -33 1 -158 59 -224
104 -27 18 -66 51 -88 74 -22 23 -57 55 -79 72 l-38 31 28 16 c16 8 30 15 32
16 1 0 60 -41 130 -91z m-2130 -56 c2 -24 -4 -40 -27 -65 -26 -28 -32 -31 -41
-18 -5 8 -10 29 -10 45 0 70 72 105 78 38z m1112 18 c14 -26 13 -98 -2 -107
-17 -11 -68 52 -68 84 0 16 3 32 7 35 13 14 53 6 63 -12z m-1922 -185 c3 -12
-1 -17 -10 -14 -7 3 -15 13 -16 22 -3 12 1 17 10 14 7 -3 15 -13 16 -22z
m2692 4 c0 -12 -28 -25 -36 -17 -9 9 6 27 22 27 8 0 14 -5 14 -10z"/>
<path d="M3636 5348 c-8 -13 -83 -212 -166 -443 -332 -917 -371 -1021 -397
-1064 -40 -64 -71 -83 -145 -90 -47 -4 -63 -10 -63 -21 0 -13 33 -15 240 -15
207 0 240 2 240 15 0 10 -14 17 -47 20 -27 3 -53 11 -60 18 -25 25 -7 109 71
337 l78 230 244 0 244 0 102 -270 c57 -148 103 -276 103 -284 0 -8 -7 -23 -17
-33 -9 -10 -13 -21 -9 -26 4 -4 105 -7 224 -7 198 0 217 1 220 18 3 14 -4 17
-43 17 -62 0 -103 19 -147 68 -61 67 -59 64 -415 987 -208 541 -218 565 -232
565 -6 0 -17 -10 -25 -22z m99 -613 c54 -154 100 -286 103 -292 3 -10 -42 -13
-207 -13 -116 0 -211 1 -211 3 0 3 187 564 195 586 3 9 9 11 14 5 5 -5 52
-135 106 -289z"/>
<path d="M5040 5359 c-185 -33 -318 -167 -336 -339 -19 -192 61 -327 326 -550
231 -195 290 -279 290 -414 0 -81 -22 -144 -70 -199 -58 -65 -124 -92 -230
-91 -188 0 -304 91 -319 249 -5 45 -10 61 -23 63 -13 3 -17 -9 -23 -70 -3 -40
-5 -113 -3 -163 l3 -90 45 -22 c111 -55 309 -72 434 -38 262 71 399 320 321
583 -36 120 -132 227 -420 465 -136 113 -185 190 -185 294 0 70 33 147 78 185
55 46 112 62 205 55 108 -8 153 -23 203 -72 34 -33 44 -51 54 -100 28 -128 47
-98 51 79 l4 139 -90 18 c-117 23 -246 30 -315 18z"/>
<path d="M6381 5356 c-7 -8 -131 -342 -277 -742 -146 -401 -276 -748 -289
-771 -35 -58 -75 -84 -145 -92 -33 -4 -63 -10 -67 -14 -22 -22 29 -27 248 -25
200 3 234 5 234 18 0 10 -14 17 -48 21 -27 3 -53 12 -58 20 -20 33 -6 103 69
329 l78 235 245 3 244 2 103 -272 c56 -150 102 -279 102 -287 0 -8 -7 -23 -17
-33 -9 -10 -13 -21 -9 -26 4 -4 105 -7 224 -7 198 0 217 1 220 18 3 14 -4 17
-43 17 -95 0 -151 48 -216 184 -21 45 -144 356 -274 691 -306 795 -294 767
-324 731z m98 -629 c56 -158 101 -289 101 -292 0 -3 -95 -5 -211 -5 -186 0
-210 2 -205 15 3 9 47 143 97 298 51 155 94 286 97 291 8 14 15 -4 121 -307z"/>
<path d="M2095 5349 c-319 -30 -542 -174 -671 -434 -210 -424 -51 -917 361
-1121 144 -71 256 -95 470 -101 224 -7 431 21 465 62 25 30 74 335 53 335 -5
0 -19 -33 -30 -73 -29 -96 -66 -145 -139 -184 -79 -41 -142 -53 -288 -53 -147
0 -243 21 -361 79 -196 97 -346 284 -406 507 -30 106 -32 321 -5 439 52 230
199 390 416 451 33 9 117 18 211 21 187 7 268 -7 389 -68 118 -59 158 -119
176 -263 11 -91 22 -32 28 159 l7 191 -198 27 c-232 31 -354 38 -478 26z"/>
<path d="M4746 3178 c-8 -13 -130 -342 -271 -733 -142 -390 -268 -730 -280
-755 -40 -77 -76 -101 -173 -115 -33 -4 -52 -11 -49 -19 6 -17 479 -16 485 2
2 7 -6 12 -22 12 -15 0 -42 7 -61 14 -33 14 -35 18 -35 63 0 33 25 122 78 283
l78 235 244 0 244 0 103 -270 c56 -148 102 -279 103 -289 0 -10 -8 -25 -17
-32 -37 -28 7 -34 222 -31 179 2 210 4 210 17 0 9 -10 15 -25 16 -60 1 -103
17 -140 51 -73 66 -73 65 -436 1010 -113 296 -211 544 -216 551 -15 18 -26 15
-42 -10z m18 -390 c15 -40 62 -174 105 -298 l79 -225 -206 -3 c-112 -1 -206
-1 -208 1 -6 5 189 597 197 597 4 0 19 -33 33 -72z"/>
<path d="M860 3170 c-14 -4 -213 -8 -443 -9 -393 -1 -418 -2 -415 -18 2 -14
17 -19 62 -24 44 -5 64 -13 85 -33 l26 -26 0 -683 c0 -807 2 -787 -100 -803
-46 -6 -61 -28 -27 -38 9 -3 203 -6 430 -8 390 -3 414 -2 427 15 14 19 29 98
40 202 9 95 -24 118 -39 26 -3 -20 -15 -51 -26 -69 -33 -53 -75 -65 -240 -70
-164 -4 -210 6 -244 51 -20 27 -21 42 -24 354 l-3 326 168 -5 c225 -6 256 -21
265 -128 2 -23 9 -36 19 -38 14 -2 17 13 23 105 4 59 12 128 17 152 13 57 -1
74 -34 43 -38 -36 -80 -42 -274 -42 l-183 0 0 310 0 310 150 0 c242 0 298 -22
308 -119 4 -48 22 -74 38 -58 3 3 10 47 14 99 5 51 12 114 16 141 7 49 6 50
-36 37z"/>
<path d="M3780 3170 c-14 -4 -213 -8 -442 -9 -347 -1 -418 -3 -418 -15 0 -9
18 -16 50 -20 75 -10 100 -22 114 -58 19 -44 31 -865 18 -1178 -12 -290 -15
-298 -115 -315 -23 -4 -37 -11 -34 -18 4 -13 295 -27 653 -30 152 -2 205 1
217 11 22 19 40 105 41 201 1 58 -3 85 -11 88 -7 3 -15 -8 -18 -24 -13 -61
-38 -114 -61 -132 -39 -31 -124 -43 -269 -39 -117 3 -137 6 -162 24 -46 34
-51 78 -52 408 l-1 298 168 -4 c141 -3 173 -7 207 -23 37 -19 41 -25 54 -83 8
-34 19 -61 25 -59 6 2 16 56 22 120 7 65 15 133 18 151 9 47 -9 55 -45 20
l-30 -29 -210 -3 -209 -4 0 311 0 311 150 0 c82 0 173 -5 202 -11 63 -14 108
-54 108 -96 0 -43 11 -73 26 -73 14 0 20 27 28 130 3 36 8 86 12 113 7 49 5
50 -36 37z"/>
<path d="M1578 3163 c-217 -3 -268 -6 -268 -17 0 -9 18 -16 50 -20 77 -10 99
-22 116 -62 13 -30 14 -131 12 -717 -4 -807 4 -752 -111 -772 -23 -4 -37 -11
-34 -18 5 -16 515 -23 531 -7 15 15 4 20 -55 26 -30 3 -66 10 -80 15 -49 19
-53 42 -57 352 l-4 289 143 -8 c79 -3 147 -8 151 -11 4 -2 64 -83 135 -181
336 -466 369 -491 635 -500 155 -5 198 0 198 22 0 9 -26 17 -82 24 -157 22
-223 70 -412 296 -92 111 -296 370 -310 394 -5 8 13 35 51 76 136 145 199 290
191 439 -10 186 -119 309 -323 361 -79 20 -158 23 -477 19z m403 -102 c146
-56 227 -214 217 -426 -10 -194 -83 -308 -217 -336 -64 -13 -175 -6 -251 17
l-50 15 2 372 3 372 35 7 c65 12 202 1 261 -21z"/>
<path d="M5600 3147 c0 -8 25 -17 67 -24 88 -16 106 -34 111 -115 1 -35 7
-274 11 -533 10 -517 10 -523 76 -663 66 -140 213 -248 390 -287 103 -23 284
-17 375 13 140 46 271 152 334 271 79 150 96 302 96 846 0 219 4 375 11 398
12 44 38 63 97 73 26 4 42 12 42 20 0 12 -43 14 -240 14 -190 0 -240 -3 -240
-13 0 -8 25 -17 67 -24 116 -20 108 20 111 -511 3 -491 -3 -595 -43 -714 -66
-195 -213 -299 -426 -299 -98 0 -171 21 -241 69 -97 67 -153 154 -190 294 -20
78 -21 114 -25 562 -3 263 -2 494 2 513 9 49 43 80 99 88 29 5 46 12 46 21 0
12 -46 14 -265 14 -210 0 -265 -3 -265 -13z"/>
<path d="M7344 3149 c-11 -19 9 -29 55 -29 57 0 127 -41 166 -98 44 -63 385
-643 385 -654 0 -19 -414 -672 -454 -716 -49 -53 -78 -69 -144 -78 -34 -4 -52
-11 -52 -20 0 -8 5 -14 10 -14 6 -1 102 -1 215 -1 113 0 210 0 215 1 6 0 10 6
10 14 0 8 -16 16 -40 20 -84 13 -73 46 134 400 l174 297 58 -98 c133 -225 314
-549 314 -562 0 -8 -7 -22 -16 -32 -32 -35 -10 -39 212 -39 178 0 214 2 214
14 0 9 -19 18 -52 26 -90 19 -129 49 -195 152 -89 138 -413 684 -413 695 0 16
376 578 417 624 41 46 86 69 131 69 30 0 58 21 45 33 -12 12 -431 8 -439 -4
-9 -16 15 -29 53 -29 35 0 63 -22 63 -48 -1 -30 -35 -94 -137 -257 -197 -316
-193 -310 -208 -289 -22 33 -199 345 -248 438 -64 122 -62 151 13 158 23 2 35
8 35 18 0 13 -36 15 -258 16 -142 1 -260 -2 -263 -7z"/>
</g>
</svg>
